STARTFONT 2.1
FONT -Monotype-Times New Roman-Regular-I-Normal--14-140-75-75-P-69-iso8859-2
SIZE 14 75 75
FONTBOUNDINGBOX 18 17 -3 -4

STARTPROPERTIES 24
FOUNDRY "Monotype"
FAMILY_NAME "Times New Roman"
WEIGHT_NAME "Regular"
SLANT "I"
SETWIDTH_NAME "Normal"
ADD_STYLE_NAME ""
PIXEL_SIZE 14
POINT_SIZE 140
RESOLUTION_X 75
RESOLUTION_Y 75
SPACING "P"
AVERAGE_WIDTH 69
CHARSET_REGISTRY "iso8859"
CHARSET_ENCODING "2"
FACE_NAME "Times New Roman Italic ISO Latin2"
_DEC_DEVICE_FONTNAMES "PS=timesnewroman-it-lat2"
COPYRIGHT "Copyright (c) 1994 Monotype Typography Ltd."
CAP_HEIGHT 11
X_HEIGHT 7
WEIGHT 10
QUAD_WIDTH 8
DEFAULT_CHAR 160
FONT_DESCENT 4
FONT_ASCENT 13
ENDPROPERTIES

CHARS 191

STARTCHAR space
ENCODING 32
SWIDTH 250 0
DWIDTH 4 0
BBX 0 0 0 0
BITMAP
ENDCHAR

STARTCHAR exclam
ENCODING 33
SWIDTH 333 0
DWIDTH 5 0
BBX 3 10 1 0
BITMAP
20
20
20
40
40
40
40
00
80
80
ENDCHAR

STARTCHAR quotedbl
ENCODING 34
SWIDTH 420 0
DWIDTH 6 0
BBX 5 4 1 6
BITMAP
48
48
90
90
ENDCHAR

STARTCHAR numbersign
ENCODING 35
SWIDTH 500 0
DWIDTH 8 0
BBX 8 10 0 0
BITMAP
12
12
12
7F
24
24
FE
48
48
48
ENDCHAR

STARTCHAR dollar
ENCODING 36
SWIDTH 500 0
DWIDTH 8 0
BBX 7 12 0 -1
BITMAP
04
1C
2A
4A
50
38
14
14
A4
A8
70
40
ENDCHAR

STARTCHAR percent
ENCODING 37
SWIDTH 833 0
DWIDTH 12 0
BBX 9 10 2 0
BITMAP
0080
3100
5100
9200
A400
C980
1280
1480
2500
4600
ENDCHAR

STARTCHAR ampersand
ENCODING 38
SWIDTH 778 0
DWIDTH 12 0
BBX 10 10 1 0
BITMAP
0E00
1100
1100
1600
2800
45C0
8480
8300
8200
7DC0
ENDCHAR

STARTCHAR quoteright
ENCODING 39
SWIDTH 333 0
DWIDTH 5 0
BBX 2 3 2 7
BITMAP
40
40
80
ENDCHAR

STARTCHAR parenleft
ENCODING 40
SWIDTH 333 0
DWIDTH 5 0
BBX 5 13 0 -3
BITMAP
08
10
20
40
40
80
80
80
80
80
80
40
40
ENDCHAR

STARTCHAR parenright
ENCODING 41
SWIDTH 333 0
DWIDTH 5 0
BBX 5 13 -1 -3
BITMAP
10
10
08
08
08
08
08
08
10
10
20
40
80
ENDCHAR

STARTCHAR asterisk
ENCODING 42
SWIDTH 500 0
DWIDTH 8 0
BBX 5 6 2 4
BITMAP
20
A8
70
70
A8
20
ENDCHAR

STARTCHAR plus
ENCODING 43
SWIDTH 675 0
DWIDTH 10 0
BBX 7 7 2 0
BITMAP
10
10
10
FE
10
10
10
ENDCHAR

STARTCHAR comma
ENCODING 44
SWIDTH 250 0
DWIDTH 4 0
BBX 2 3 0 -2
BITMAP
40
40
80
ENDCHAR

STARTCHAR minus
ENCODING 45
SWIDTH 675 0
DWIDTH 10 0
BBX 7 1 2 3
BITMAP
FE
ENDCHAR

STARTCHAR period
ENCODING 46
SWIDTH 250 0
DWIDTH 4 0
BBX 1 1 1 0
BITMAP
80
ENDCHAR

STARTCHAR slash
ENCODING 47
SWIDTH 278 0
DWIDTH 4 0
BBX 6 10 -1 0
BITMAP
04
08
08
10
20
20
40
40
80
80
ENDCHAR

STARTCHAR zero
ENCODING 48
SWIDTH 500 0
DWIDTH 7 0
BBX 6 10 0 0
BITMAP
18
24
44
44
84
84
88
88
90
60
ENDCHAR

STARTCHAR one
ENCODING 49
SWIDTH 500 0
DWIDTH 7 0
BBX 4 10 1 0
BITMAP
30
10
10
20
20
20
20
40
40
E0
ENDCHAR

STARTCHAR two
ENCODING 50
SWIDTH 500 0
DWIDTH 7 0
BBX 7 10 -1 0
BITMAP
1C
22
02
02
04
08
10
20
44
F8
ENDCHAR

STARTCHAR three
ENCODING 51
SWIDTH 500 0
DWIDTH 7 0
BBX 6 10 0 0
BITMAP
18
24
04
08
30
10
08
08
90
60
ENDCHAR

STARTCHAR four
ENCODING 52
SWIDTH 500 0
DWIDTH 7 0
BBX 6 10 0 0
BITMAP
04
0C
14
28
48
48
88
FC
10
10
ENDCHAR

STARTCHAR five
ENCODING 53
SWIDTH 500 0
DWIDTH 7 0
BBX 7 10 -1 0
BITMAP
1E
20
20
18
04
04
04
04
88
70
ENDCHAR

STARTCHAR six
ENCODING 54
SWIDTH 500 0
DWIDTH 7 0
BBX 7 10 0 0
BITMAP
06
18
20
78
44
84
84
84
88
70
ENDCHAR

STARTCHAR seven
ENCODING 55
SWIDTH 500 0
DWIDTH 7 0
BBX 6 10 1 0
BITMAP
7C
84
08
10
10
20
40
40
80
80
ENDCHAR

STARTCHAR eight
ENCODING 56
SWIDTH 500 0
DWIDTH 7 0
BBX 6 10 0 0
BITMAP
38
44
44
44
38
44
84
84
88
70
ENDCHAR

STARTCHAR nine
ENCODING 57
SWIDTH 500 0
DWIDTH 7 0
BBX 7 10 0 0
BITMAP
1C
22
42
42
42
44
3C
08
30
C0
ENDCHAR

STARTCHAR colon
ENCODING 58
SWIDTH 333 0
DWIDTH 5 0
BBX 3 7 1 0
BITMAP
20
00
00
00
00
00
80
ENDCHAR

STARTCHAR semicolon
ENCODING 59
SWIDTH 333 0
DWIDTH 5 0
BBX 3 9 1 -2
BITMAP
20
00
00
00
00
00
40
40
80
ENDCHAR

STARTCHAR less
ENCODING 60
SWIDTH 675 0
DWIDTH 10 0
BBX 7 7 2 0
BITMAP
02
0C
30
C0
30
0C
02
ENDCHAR

STARTCHAR equal
ENCODING 61
SWIDTH 675 0
DWIDTH 10 0
BBX 7 4 2 2
BITMAP
FE
00
00
FE
ENDCHAR

STARTCHAR greater
ENCODING 62
SWIDTH 675 0
DWIDTH 10 0
BBX 7 7 2 0
BITMAP
80
60
18
06
18
60
80
ENDCHAR

STARTCHAR question
ENCODING 63
SWIDTH 500 0
DWIDTH 8 0
BBX 5 10 2 0
BITMAP
70
88
08
10
20
40
40
00
80
80
ENDCHAR

STARTCHAR at
ENCODING 64
SWIDTH 920 0
DWIDTH 14 0
BBX 12 14 1 -4
BITMAP
0F80
3060
2020
4390
4490
8890
9090
9120
9360
4D80
4010
2020
3060
0F80
ENDCHAR

STARTCHAR A
ENCODING 65
SWIDTH 611 0
DWIDTH 9 0
BBX 9 10 -1 0
BITMAP
0100
0300
0500
0500
0900
1100
1F00
2100
4100
E380
ENDCHAR

STARTCHAR B
ENCODING 66
SWIDTH 611 0
DWIDTH 9 0
BBX 9 10 0 0
BITMAP
3F00
1080
1080
2100
3E00
2100
2100
4100
4200
FC00
ENDCHAR

STARTCHAR C
ENCODING 67
SWIDTH 667 0
DWIDTH 10 0
BBX 9 10 1 0
BITMAP
1E80
2180
4080
4000
8000
8000
8000
8100
4200
3C00
ENDCHAR

STARTCHAR D
ENCODING 68
SWIDTH 722 0
DWIDTH 11 0
BBX 10 10 0 0
BITMAP
3F00
1080
1040
2040
2040
2040
2040
4080
4100
FE00
ENDCHAR

STARTCHAR E
ENCODING 69
SWIDTH 611 0
DWIDTH 9 0
BBX 9 10 0 0
BITMAP
3F80
1080
1000
2200
3C00
2400
2000
4100
4200
FE00
ENDCHAR

STARTCHAR F
ENCODING 70
SWIDTH 611 0
DWIDTH 9 0
BBX 9 10 0 0
BITMAP
3F80
1080
1000
2200
3C00
2400
2000
4000
4000
E000
ENDCHAR

STARTCHAR G
ENCODING 71
SWIDTH 722 0
DWIDTH 11 0
BBX 9 10 1 0
BITMAP
1E80
2180
4080
4000
8000
8380
8100
8100
4200
3C00
ENDCHAR

STARTCHAR H
ENCODING 72
SWIDTH 722 0
DWIDTH 11 0
BBX 11 10 0 0
BITMAP
38E0
1040
1040
2080
3F80
2080
2080
4100
4100
E380
ENDCHAR

STARTCHAR I
ENCODING 73
SWIDTH 333 0
DWIDTH 5 0
BBX 5 10 0 0
BITMAP
38
10
10
20
20
20
20
40
40
E0
ENDCHAR

STARTCHAR J
ENCODING 74
SWIDTH 444 0
DWIDTH 7 0
BBX 7 10 0 0
BITMAP
0E
04
04
08
08
08
08
10
90
60
ENDCHAR

STARTCHAR K
ENCODING 75
SWIDTH 667 0
DWIDTH 10 0
BBX 9 10 0 0
BITMAP
3980
1100
1200
2400
2800
3800
2400
4200
4100
E380
ENDCHAR

STARTCHAR L
ENCODING 76
SWIDTH 556 0
DWIDTH 8 0
BBX 8 10 0 0
BITMAP
38
10
10
20
20
20
20
41
42
FE
ENDCHAR

STARTCHAR M
ENCODING 77
SWIDTH 833 0
DWIDTH 12 0
BBX 12 10 0 0
BITMAP
3030
1060
10A0
28A0
2940
2940
2A40
4A80
4480
E5C0
ENDCHAR

STARTCHAR N
ENCODING 78
SWIDTH 667 0
DWIDTH 10 0
BBX 10 10 0 0
BITMAP
31C0
1080
1080
2900
2900
2500
2500
4200
4200
E200
ENDCHAR

STARTCHAR O
ENCODING 79
SWIDTH 722 0
DWIDTH 11 0
BBX 9 10 1 0
BITMAP
1E00
2100
4080
4080
8080
8080
8100
8100
4200
3C00
ENDCHAR

STARTCHAR P
ENCODING 80
SWIDTH 611 0
DWIDTH 9 0
BBX 9 10 0 0
BITMAP
3E00
1100
1080
2080
2100
3E00
2000
4000
4000
E000
ENDCHAR

STARTCHAR Q
ENCODING 81
SWIDTH 722 0
DWIDTH 11 0
BBX 9 13 1 -3
BITMAP
1E00
2100
4080
4080
8080
8080
8100
8100
4200
3C00
1000
6180
9E00
ENDCHAR

STARTCHAR R
ENCODING 82
SWIDTH 611 0
DWIDTH 9 0
BBX 9 10 0 0
BITMAP
3E00
1100
1080
2080
2100
3E00
2400
4200
4200
E300
ENDCHAR

STARTCHAR S
ENCODING 83
SWIDTH 500 0
DWIDTH 8 0
BBX 8 10 0 0
BITMAP
1D
22
22
20
10
08
04
44
44
B8
ENDCHAR

STARTCHAR T
ENCODING 84
SWIDTH 556 0
DWIDTH 8 0
BBX 8 10 0 0
BITMAP
7F
49
89
10
10
10
10
20
20
70
ENDCHAR

STARTCHAR U
ENCODING 85
SWIDTH 722 0
DWIDTH 11 0
BBX 10 10 1 0
BITMAP
71C0
2080
2080
4100
4100
4100
4100
8200
8200
7C00
ENDCHAR

STARTCHAR V
ENCODING 86
SWIDTH 611 0
DWIDTH 9 0
BBX 9 10 1 0
BITMAP
E380
4100
4200
4200
4400
4800
4800
5000
6000
4000
ENDCHAR

STARTCHAR W
ENCODING 87
SWIDTH 833 0
DWIDTH 12 0
BBX 12 10 1 0
BITMAP
EE70
4420
4440
4440
4C80
5500
5500
6600
4400
4400
ENDCHAR

STARTCHAR X
ENCODING 88
SWIDTH 611 0
DWIDTH 9 0
BBX 11 10 -1 0
BITMAP
38E0
1040
0880
0900
0600
0C00
1200
2200
4100
E380
ENDCHAR

STARTCHAR Y
ENCODING 89
SWIDTH 556 0
DWIDTH 8 0
BBX 9 10 0 0
BITMAP
E380
4100
2200
2400
1800
1000
1000
2000
2000
7000
ENDCHAR

STARTCHAR Z
ENCODING 90
SWIDTH 556 0
DWIDTH 8 0
BBX 9 10 -1 0
BITMAP
1F80
1100
2200
0400
0800
0800
1000
2100
4200
FE00
ENDCHAR

STARTCHAR bracketleft
ENCODING 91
SWIDTH 389 0
DWIDTH 6 0
BBX 6 14 0 -4
BITMAP
1C
10
10
10
20
20
20
40
40
40
40
80
80
E0
ENDCHAR

STARTCHAR backslash
ENCODING 92
SWIDTH 278 0
DWIDTH 4 0
BBX 6 10 -1 0
BITMAP
80
80
40
40
20
20
10
08
08
04
ENDCHAR

STARTCHAR bracketright
ENCODING 93
SWIDTH 389 0
DWIDTH 6 0
BBX 6 14 -1 -4
BITMAP
1C
04
04
08
08
08
08
10
10
10
20
20
20
E0
ENDCHAR

STARTCHAR asciicircum
ENCODING 94
SWIDTH 422 0
DWIDTH 6 0
BBX 7 5 0 5
BITMAP
08
14
24
42
82
ENDCHAR

STARTCHAR underscore
ENCODING 95
SWIDTH 500 0
DWIDTH 8 0
BBX 8 1 0 -2
BITMAP
FF
ENDCHAR

STARTCHAR quoteleft
ENCODING 96
SWIDTH 333 0
DWIDTH 5 0
BBX 2 3 2 7
BITMAP
40
80
80
ENDCHAR

STARTCHAR a
ENCODING 97
SWIDTH 500 0
DWIDTH 7 0
BBX 6 7 0 0
BITMAP
1C
24
44
84
88
98
6C
ENDCHAR

STARTCHAR b
ENCODING 98
SWIDTH 500 0
DWIDTH 7 0
BBX 6 10 0 0
BITMAP
60
20
20
58
64
44
44
84
88
F0
ENDCHAR

STARTCHAR c
ENCODING 99
SWIDTH 444 0
DWIDTH 7 0
BBX 6 7 0 0
BITMAP
38
44
80
80
80
88
70
ENDCHAR

STARTCHAR d
ENCODING 100
SWIDTH 500 0
DWIDTH 7 0
BBX 7 10 0 0
BITMAP
06
02
02
34
4C
84
84
88
98
6C
ENDCHAR

STARTCHAR e
ENCODING 101
SWIDTH 444 0
DWIDTH 7 0
BBX 6 7 0 0
BITMAP
18
24
48
F0
80
88
70
ENDCHAR

STARTCHAR f
ENCODING 102
SWIDTH 278 0
DWIDTH 4 0
BBX 8 13 -3 -3
BITMAP
03
05
08
1C
08
08
08
10
10
10
20
A0
C0
ENDCHAR

STARTCHAR g
ENCODING 103
SWIDTH 500 0
DWIDTH 7 0
BBX 8 11 -2 -4
BITMAP
0C
13
22
22
24
18
20
5C
82
84
78
ENDCHAR

STARTCHAR h
ENCODING 104
SWIDTH 500 0
DWIDTH 7 0
BBX 6 10 0 0
BITMAP
60
20
20
4C
54
64
44
88
88
8C
ENDCHAR

STARTCHAR i
ENCODING 105
SWIDTH 278 0
DWIDTH 4 0
BBX 3 10 0 0
BITMAP
20
20
00
C0
40
40
40
80
80
C0
ENDCHAR

STARTCHAR j
ENCODING 106
SWIDTH 278 0
DWIDTH 4 0
BBX 6 13 -2 -3
BITMAP
04
04
00
18
08
08
08
10
10
10
20
A0
C0
ENDCHAR

STARTCHAR k
ENCODING 107
SWIDTH 444 0
DWIDTH 7 0
BBX 6 10 0 0
BITMAP
60
20
20
4C
48
50
60
90
94
88
ENDCHAR

STARTCHAR l
ENCODING 108
SWIDTH 278 0
DWIDTH 4 0
BBX 3 10 0 0
BITMAP
60
20
20
40
40
40
40
80
80
C0
ENDCHAR

STARTCHAR m
ENCODING 109
SWIDTH 722 0
DWIDTH 11 0
BBX 10 7 0 0
BITMAP
CCC0
5540
6640
4440
8880
8880
88C0
ENDCHAR

STARTCHAR n
ENCODING 110
SWIDTH 500 0
DWIDTH 7 0
BBX 6 7 0 0
BITMAP
CC
54
64
44
88
88
8C
ENDCHAR

STARTCHAR o
ENCODING 111
SWIDTH 500 0
DWIDTH 7 0
BBX 6 7 0 0
BITMAP
38
44
84
84
84
88
70
ENDCHAR

STARTCHAR p
ENCODING 112
SWIDTH 500 0
DWIDTH 7 0
BBX 8 10 -2 -3
BITMAP
36
19
11
11
21
32
2C
40
40
E0
ENDCHAR

STARTCHAR q
ENCODING 113
SWIDTH 500 0
DWIDTH 7 0
BBX 6 10 0 -3
BITMAP
34
4C
84
84
88
98
68
10
10
38
ENDCHAR

STARTCHAR r
ENCODING 114
SWIDTH 389 0
DWIDTH 6 0
BBX 5 7 0 0
BITMAP
D8
68
40
40
80
80
80
ENDCHAR

STARTCHAR s
ENCODING 115
SWIDTH 389 0
DWIDTH 6 0
BBX 5 7 0 0
BITMAP
38
48
40
20
10
90
E0
ENDCHAR

STARTCHAR t
ENCODING 116
SWIDTH 278 0
DWIDTH 4 0
BBX 3 9 0 0
BITMAP
20
40
E0
40
40
40
80
A0
C0
ENDCHAR

STARTCHAR u
ENCODING 117
SWIDTH 500 0
DWIDTH 7 0
BBX 6 7 0 0
BITMAP
C4
44
44
88
98
A8
CC
ENDCHAR

STARTCHAR v
ENCODING 118
SWIDTH 444 0
DWIDTH 7 0
BBX 6 7 0 0
BITMAP
CC
44
44
48
50
60
40
ENDCHAR

STARTCHAR w
ENCODING 119
SWIDTH 667 0
DWIDTH 10 0
BBX 10 7 -1 0
BITMAP
C4C0
4440
4440
4C80
5500
6600
4400
ENDCHAR

STARTCHAR x
ENCODING 120
SWIDTH 444 0
DWIDTH 7 0
BBX 9 7 -2 0
BITMAP
3180
1200
1400
0800
1400
2500
C200
ENDCHAR

STARTCHAR y
ENCODING 121
SWIDTH 444 0
DWIDTH 7 0
BBX 8 10 -2 -3
BITMAP
33
11
11
12
14
18
10
10
20
C0
ENDCHAR

STARTCHAR z
ENCODING 122
SWIDTH 389 0
DWIDTH 6 0
BBX 6 7 0 0
BITMAP
7C
48
10
20
40
88
F0
ENDCHAR

STARTCHAR braceleft
ENCODING 123
SWIDTH 400 0
DWIDTH 6 0
BBX 6 13 0 -3
BITMAP
0C
10
20
20
20
40
80
40
40
80
80
80
60
ENDCHAR

STARTCHAR bar
ENCODING 124
SWIDTH 200 0
DWIDTH 3 0
BBX 1 13 1 -3
BITMAP
80
80
80
80
80
80
80
80
80
80
80
80
80
ENDCHAR

STARTCHAR braceright
ENCODING 125
SWIDTH 400 0
DWIDTH 6 0
BBX 6 13 -1 -3
BITMAP
18
04
04
04
08
08
04
08
10
10
10
20
C0
ENDCHAR

STARTCHAR asciitilde
ENCODING 126
SWIDTH 541 0
DWIDTH 8 0
BBX 7 2 1 4
BITMAP
72
9C
ENDCHAR

STARTCHAR space
ENCODING 160
SWIDTH 250 0
DWIDTH 4 0
BBX 0 0 0 0
BITMAP
ENDCHAR

STARTCHAR Aogonek
ENCODING 161
SWIDTH 611 0
DWIDTH 9 0
BBX 10 13 -1 -3
BITMAP
0100
0300
0500
0500
0900
1100
1F00
2100
4100
E380
0100
0100
00C0
ENDCHAR

STARTCHAR breve
ENCODING 162
SWIDTH 333 0
DWIDTH 5 0
BBX 4 2 1 8
BITMAP
90
60
ENDCHAR

STARTCHAR Lslash
ENCODING 163
SWIDTH 556 0
DWIDTH 8 0
BBX 8 10 0 0
BITMAP
38
10
10
28
30
60
A0
41
42
FE
ENDCHAR

STARTCHAR currency
ENCODING 164
SWIDTH 500 0
DWIDTH 8 0
BBX 7 7 1 0
BITMAP
BA
44
82
82
82
44
BA
ENDCHAR

STARTCHAR Lcaron
ENCODING 165
SWIDTH 556 0
DWIDTH 8 0
BBX 9 10 0 0
BITMAP
3880
1080
1100
2000
2000
2000
2000
4100
4200
FE00
ENDCHAR

STARTCHAR Sacute
ENCODING 166
SWIDTH 500 0
DWIDTH 8 0
BBX 8 13 0 0
BITMAP
02
04
00
1D
22
22
20
10
08
04
44
44
B8
ENDCHAR

STARTCHAR section
ENCODING 167
SWIDTH 500 0
DWIDTH 8 0
BBX 7 14 1 -4
BITMAP
0C
12
12
08
18
24
44
44
48
30
20
90
90
60
ENDCHAR

STARTCHAR dieresis
ENCODING 168
SWIDTH 333 0
DWIDTH 5 0
BBX 3 1 1 8
BITMAP
A0
ENDCHAR

STARTCHAR Scaron
ENCODING 169
SWIDTH 500 0
DWIDTH 8 0
BBX 8 13 0 0
BITMAP
09
06
00
1D
22
22
20
10
08
04
44
44
B8
ENDCHAR

STARTCHAR Scommaaccent
ENCODING 170
SWIDTH 500 0
DWIDTH 8 0
BBX 8 14 0 -4
BITMAP
1D
22
22
20
10
08
04
44
44
B8
00
10
10
20
ENDCHAR

STARTCHAR Tcaron
ENCODING 171
SWIDTH 556 0
DWIDTH 8 0
BBX 8 13 0 0
BITMAP
12
0C
00
7F
49
89
10
10
10
10
20
20
70
ENDCHAR

STARTCHAR Zacute
ENCODING 172
SWIDTH 556 0
DWIDTH 8 0
BBX 9 13 -1 0
BITMAP
0100
0200
0000
1F80
1100
2200
0400
0800
0800
1000
2100
4200
FE00
ENDCHAR

STARTCHAR hyphen
ENCODING 173
SWIDTH 333 0
DWIDTH 5 0
BBX 5 1 0 6
BITMAP
F8
ENDCHAR

STARTCHAR Zcaron
ENCODING 174
SWIDTH 556 0
DWIDTH 8 0
BBX 9 13 -1 0
BITMAP
0900
0600
0000
1F80
1100
2200
0400
0800
0800
1000
2100
4200
FE00
ENDCHAR

STARTCHAR Zdotaccent
ENCODING 175
SWIDTH 556 0
DWIDTH 8 0
BBX 9 12 -1 0
BITMAP
0200
0000
1F80
1100
2200
0400
0800
0800
1000
2100
4200
FE00
ENDCHAR

STARTCHAR degree
ENCODING 176
SWIDTH 400 0
DWIDTH 6 0
BBX 5 5 1 5
BITMAP
70
88
88
88
70
ENDCHAR

STARTCHAR aogonek
ENCODING 177
SWIDTH 500 0
DWIDTH 7 0
BBX 7 10 0 -3
BITMAP
1C
24
44
84
88
98
6C
08
08
06
ENDCHAR

STARTCHAR ogonek
ENCODING 178
SWIDTH 333 0
DWIDTH 5 0
BBX 3 3 1 -3
BITMAP
80
80
60
ENDCHAR

STARTCHAR lslash
ENCODING 179
SWIDTH 278 0
DWIDTH 4 0
BBX 5 10 -1 0
BITMAP
30
10
10
28
30
60
A0
40
40
60
ENDCHAR

STARTCHAR acute
ENCODING 180
SWIDTH 333 0
DWIDTH 5 0
BBX 2 2 2 8
BITMAP
40
80
ENDCHAR

STARTCHAR lcaron
ENCODING 181
SWIDTH 364 0
DWIDTH 5 0
BBX 6 10 0 0
BITMAP
64
24
28
40
40
40
40
80
80
C0
ENDCHAR

STARTCHAR sacute
ENCODING 182
SWIDTH 389 0
DWIDTH 6 0
BBX 5 10 0 0
BITMAP
08
10
00
38
48
40
20
10
90
E0
ENDCHAR

STARTCHAR caron
ENCODING 183
SWIDTH 333 0
DWIDTH 5 0
BBX 4 2 1 8
BITMAP
90
60
ENDCHAR

STARTCHAR commaaccent
ENCODING 184
SWIDTH 333 0
DWIDTH 5 0
BBX 2 3 1 -4
BITMAP
40
40
80
ENDCHAR

STARTCHAR scaron
ENCODING 185
SWIDTH 389 0
DWIDTH 6 0
BBX 6 10 0 0
BITMAP
24
18
00
38
48
40
20
10
90
E0
ENDCHAR

STARTCHAR scommaaccent
ENCODING 186
SWIDTH 389 0
DWIDTH 6 0
BBX 5 11 0 -4
BITMAP
38
48
40
20
10
90
E0
00
40
40
80
ENDCHAR

STARTCHAR tcaron
ENCODING 187
SWIDTH 364 0
DWIDTH 5 0
BBX 6 10 0 0
BITMAP
04
24
48
E0
40
40
80
80
A0
C0
ENDCHAR

STARTCHAR zacute
ENCODING 188
SWIDTH 389 0
DWIDTH 6 0
BBX 6 10 0 0
BITMAP
04
08
00
7C
48
10
20
40
88
F0
ENDCHAR

STARTCHAR hungarumlaut
ENCODING 189
SWIDTH 333 0
DWIDTH 5 0
BBX 5 2 1 8
BITMAP
48
90
ENDCHAR

STARTCHAR zcaron
ENCODING 190
SWIDTH 389 0
DWIDTH 6 0
BBX 6 10 0 0
BITMAP
24
18
00
7C
48
10
20
40
88
F0
ENDCHAR

STARTCHAR zdotaccent
ENCODING 191
SWIDTH 389 0
DWIDTH 6 0
BBX 6 9 0 0
BITMAP
10
00
7C
48
10
20
40
88
F0
ENDCHAR

STARTCHAR Racute
ENCODING 192
SWIDTH 611 0
DWIDTH 9 0
BBX 9 13 0 0
BITMAP
0200
0400
0000
3E00
1100
1080
2080
2100
3E00
2400
4200
4200
E300
ENDCHAR

STARTCHAR Aacute
ENCODING 193
SWIDTH 611 0
DWIDTH 9 0
BBX 10 13 -1 0
BITMAP
0040
0080
0000
0100
0300
0500
0500
0900
1100
1F00
2100
4100
E380
ENDCHAR

STARTCHAR Acircumflex
ENCODING 194
SWIDTH 611 0
DWIDTH 9 0
BBX 10 13 -1 0
BITMAP
0180
0240
0000
0100
0300
0500
0500
0900
1100
1F00
2100
4100
E380
ENDCHAR

STARTCHAR Abreve
ENCODING 195
SWIDTH 611 0
DWIDTH 9 0
BBX 10 13 -1 0
BITMAP
0240
0180
0000
0100
0300
0500
0500
0900
1100
1F00
2100
4100
E380
ENDCHAR

STARTCHAR Adieresis
ENCODING 196
SWIDTH 611 0
DWIDTH 9 0
BBX 10 12 -1 0
BITMAP
0240
0000
0100
0300
0500
0500
0900
1100
1F00
2100
4100
E380
ENDCHAR

STARTCHAR Lacute
ENCODING 197
SWIDTH 556 0
DWIDTH 8 0
BBX 8 13 0 0
BITMAP
04
08
00
38
10
10
20
20
20
20
41
42
FE
ENDCHAR

STARTCHAR Cacute
ENCODING 198
SWIDTH 667 0
DWIDTH 10 0
BBX 9 13 1 0
BITMAP
0100
0200
0000
1E80
2180
4080
4000
8000
8000
8000
8100
4200
3C00
ENDCHAR

STARTCHAR Ccedilla
ENCODING 199
SWIDTH 667 0
DWIDTH 10 0
BBX 9 13 1 -3
BITMAP
1E80
2180
4080
4000
8000
8000
8000
8100
4200
3C00
1000
0800
3000
ENDCHAR

STARTCHAR Ccaron
ENCODING 200
SWIDTH 667 0
DWIDTH 10 0
BBX 9 13 1 0
BITMAP
0900
0600
0000
1E80
2180
4080
4000
8000
8000
8000
8100
4200
3C00
ENDCHAR

STARTCHAR Eacute
ENCODING 201
SWIDTH 611 0
DWIDTH 9 0
BBX 9 13 0 0
BITMAP
0100
0200
0000
3F80
1080
1000
2200
3C00
2400
2000
4100
4200
FE00
ENDCHAR

STARTCHAR Eogonek
ENCODING 202
SWIDTH 611 0
DWIDTH 9 0
BBX 9 13 0 -3
BITMAP
3F80
1080
1000
2200
3C00
2400
2000
4100
4200
FE00
0800
0800
0600
ENDCHAR

STARTCHAR Edieresis
ENCODING 203
SWIDTH 611 0
DWIDTH 9 0
BBX 9 12 0 0
BITMAP
0900
0000
3F80
1080
1000
2200
3C00
2400
2000
4100
4200
FE00
ENDCHAR

STARTCHAR Ecaron
ENCODING 204
SWIDTH 611 0
DWIDTH 9 0
BBX 9 13 0 0
BITMAP
0900
0600
0000
3F80
1080
1000
2200
3C00
2400
2000
4100
4200
FE00
ENDCHAR

STARTCHAR Iacute
ENCODING 205
SWIDTH 333 0
DWIDTH 5 0
BBX 6 13 0 0
BITMAP
04
08
00
38
10
10
20
20
20
20
40
40
E0
ENDCHAR

STARTCHAR Icircumflex
ENCODING 206
SWIDTH 333 0
DWIDTH 5 0
BBX 6 13 0 0
BITMAP
18
24
00
38
10
10
20
20
20
20
40
40
E0
ENDCHAR

STARTCHAR Dcaron
ENCODING 207
SWIDTH 722 0
DWIDTH 11 0
BBX 10 13 0 0
BITMAP
0480
0300
0000
3F00
1080
1040
2040
2040
2040
2040
4080
4100
FE00
ENDCHAR

STARTCHAR Dcroat
ENCODING 208
SWIDTH 722 0
DWIDTH 11 0
BBX 10 10 0 0
BITMAP
3F00
1080
1040
2040
7C40
2040
2040
4080
4100
FE00
ENDCHAR

STARTCHAR Nacute
ENCODING 209
SWIDTH 667 0
DWIDTH 10 0
BBX 10 13 0 0
BITMAP
0100
0200
0000
31C0
1080
1080
2900
2900
2500
2500
4200
4200
E200
ENDCHAR

STARTCHAR Ncaron
ENCODING 210
SWIDTH 667 0
DWIDTH 10 0
BBX 10 13 0 0
BITMAP
0480
0300
0000
31C0
1080
1080
2900
2900
2500
2500
4200
4200
E200
ENDCHAR

STARTCHAR Oacute
ENCODING 211
SWIDTH 722 0
DWIDTH 11 0
BBX 9 13 1 0
BITMAP
0200
0400
0000
1E00
2100
4080
4080
8080
8080
8100
8100
4200
3C00
ENDCHAR

STARTCHAR Ocircumflex
ENCODING 212
SWIDTH 722 0
DWIDTH 11 0
BBX 9 13 1 0
BITMAP
0600
0900
0000
1E00
2100
4080
4080
8080
8080
8100
8100
4200
3C00
ENDCHAR

STARTCHAR Ohungarumlaut
ENCODING 213
SWIDTH 722 0
DWIDTH 11 0
BBX 9 13 1 0
BITMAP
0480
0900
0000
1E00
2100
4080
4080
8080
8080
8100
8100
4200
3C00
ENDCHAR

STARTCHAR Odieresis
ENCODING 214
SWIDTH 722 0
DWIDTH 11 0
BBX 9 12 1 0
BITMAP
0900
0000
1E00
2100
4080
4080
8080
8080
8100
8100
4200
3C00
ENDCHAR

STARTCHAR multiply
ENCODING 215
SWIDTH 675 0
DWIDTH 10 0
BBX 6 6 2 1
BITMAP
84
48
30
30
48
84
ENDCHAR

STARTCHAR Rcaron
ENCODING 216
SWIDTH 611 0
DWIDTH 9 0
BBX 9 13 0 0
BITMAP
0900
0600
0000
3E00
1100
1080
2080
2100
3E00
2400
4200
4200
E300
ENDCHAR

STARTCHAR Uring
ENCODING 217
SWIDTH 722 0
DWIDTH 11 0
BBX 10 13 1 0
BITMAP
0400
0A00
0400
71C0
2080
2080
4100
4100
4100
4100
8200
8200
7C00
ENDCHAR

STARTCHAR Uacute
ENCODING 218
SWIDTH 722 0
DWIDTH 11 0
BBX 10 13 1 0
BITMAP
0200
0400
0000
71C0
2080
2080
4100
4100
4100
4100
8200
8200
7C00
ENDCHAR

STARTCHAR Uhungarumlaut
ENCODING 219
SWIDTH 722 0
DWIDTH 11 0
BBX 10 13 1 0
BITMAP
0480
0900
0000
71C0
2080
2080
4100
4100
4100
4100
8200
8200
7C00
ENDCHAR

STARTCHAR Udieresis
ENCODING 220
SWIDTH 722 0
DWIDTH 11 0
BBX 10 12 1 0
BITMAP
0900
0000
71C0
2080
2080
4100
4100
4100
4100
8200
8200
7C00
ENDCHAR

STARTCHAR Yacute
ENCODING 221
SWIDTH 556 0
DWIDTH 8 0
BBX 9 13 0 0
BITMAP
0400
0800
0000
E380
4100
2200
2400
1800
1000
1000
2000
2000
7000
ENDCHAR

STARTCHAR Tcommaaccent
ENCODING 222
SWIDTH 556 0
DWIDTH 8 0
BBX 8 14 0 -4
BITMAP
7F
49
89
10
10
10
10
20
20
70
00
40
40
80
ENDCHAR

STARTCHAR germandbls
ENCODING 223
SWIDTH 500 0
DWIDTH 8 0
BBX 10 13 -2 -3
BITMAP
0180
0240
0440
0480
0900
0880
0880
1080
1500
1200
2000
A000
4000
ENDCHAR

STARTCHAR racute
ENCODING 224
SWIDTH 389 0
DWIDTH 6 0
BBX 5 10 0 0
BITMAP
08
10
00
D8
68
40
40
80
80
80
ENDCHAR

STARTCHAR aacute
ENCODING 225
SWIDTH 500 0
DWIDTH 7 0
BBX 6 10 0 0
BITMAP
04
08
00
1C
24
44
84
88
98
6C
ENDCHAR

STARTCHAR acircumflex
ENCODING 226
SWIDTH 500 0
DWIDTH 7 0
BBX 7 10 0 0
BITMAP
0C
12
00
1C
24
44
84
88
98
6C
ENDCHAR

STARTCHAR abreve
ENCODING 227
SWIDTH 500 0
DWIDTH 7 0
BBX 7 10 0 0
BITMAP
12
0C
00
1C
24
44
84
88
98
6C
ENDCHAR

STARTCHAR adieresis
ENCODING 228
SWIDTH 500 0
DWIDTH 7 0
BBX 7 9 0 0
BITMAP
12
00
1C
24
44
84
88
98
6C
ENDCHAR

STARTCHAR lacute
ENCODING 229
SWIDTH 278 0
DWIDTH 4 0
BBX 5 13 0 0
BITMAP
08
10
00
60
20
20
40
40
40
40
80
80
C0
ENDCHAR

STARTCHAR cacute
ENCODING 230
SWIDTH 444 0
DWIDTH 7 0
BBX 6 10 0 0
BITMAP
04
08
00
38
44
80
80
80
88
70
ENDCHAR

STARTCHAR ccedilla
ENCODING 231
SWIDTH 444 0
DWIDTH 7 0
BBX 6 10 0 -3
BITMAP
38
44
80
80
80
88
70
20
10
60
ENDCHAR

STARTCHAR ccaron
ENCODING 232
SWIDTH 444 0
DWIDTH 7 0
BBX 6 10 0 0
BITMAP
24
18
00
38
44
80
80
80
88
70
ENDCHAR

STARTCHAR eacute
ENCODING 233
SWIDTH 444 0
DWIDTH 7 0
BBX 6 10 0 0
BITMAP
04
08
00
18
24
48
F0
80
88
70
ENDCHAR

STARTCHAR eogonek
ENCODING 234
SWIDTH 444 0
DWIDTH 7 0
BBX 6 10 0 -3
BITMAP
18
24
48
F0
80
88
70
20
20
18
ENDCHAR

STARTCHAR edieresis
ENCODING 235
SWIDTH 444 0
DWIDTH 7 0
BBX 7 9 0 0
BITMAP
12
00
18
24
48
F0
80
88
70
ENDCHAR

STARTCHAR ecaron
ENCODING 236
SWIDTH 444 0
DWIDTH 7 0
BBX 6 10 0 0
BITMAP
24
18
00
18
24
48
F0
80
88
70
ENDCHAR

STARTCHAR iacute
ENCODING 237
SWIDTH 278 0
DWIDTH 4 0
BBX 4 10 0 0
BITMAP
10
20
00
C0
40
40
40
80
80
C0
ENDCHAR

STARTCHAR icircumflex
ENCODING 238
SWIDTH 278 0
DWIDTH 4 0
BBX 4 10 0 0
BITMAP
60
90
00
C0
40
40
40
80
80
C0
ENDCHAR

STARTCHAR dcaron
ENCODING 239
SWIDTH 608 0
DWIDTH 9 0
BBX 10 10 0 0
BITMAP
0640
0240
0280
3400
4C00
8400
8400
8800
9800
6C00
ENDCHAR

STARTCHAR dcroat
ENCODING 240
SWIDTH 500 0
DWIDTH 8 0
BBX 8 10 0 0
BITMAP
06
1F
02
34
4C
84
84
88
98
6C
ENDCHAR

STARTCHAR nacute
ENCODING 241
SWIDTH 500 0
DWIDTH 7 0
BBX 6 10 0 0
BITMAP
08
10
00
CC
54
64
44
88
88
8C
ENDCHAR

STARTCHAR ncaron
ENCODING 242
SWIDTH 500 0
DWIDTH 7 0
BBX 6 10 0 0
BITMAP
24
18
00
CC
54
64
44
88
88
8C
ENDCHAR

STARTCHAR oacute
ENCODING 243
SWIDTH 500 0
DWIDTH 7 0
BBX 6 10 0 0
BITMAP
04
08
00
38
44
84
84
84
88
70
ENDCHAR

STARTCHAR ocircumflex
ENCODING 244
SWIDTH 500 0
DWIDTH 7 0
BBX 6 10 0 0
BITMAP
18
24
00
38
44
84
84
84
88
70
ENDCHAR

STARTCHAR ohungarumlaut
ENCODING 245
SWIDTH 500 0
DWIDTH 7 0
BBX 7 10 0 0
BITMAP
12
24
00
38
44
84
84
84
88
70
ENDCHAR

STARTCHAR odieresis
ENCODING 246
SWIDTH 500 0
DWIDTH 7 0
BBX 6 9 0 0
BITMAP
24
00
38
44
84
84
84
88
70
ENDCHAR

STARTCHAR divide
ENCODING 247
SWIDTH 675 0
DWIDTH 10 0
BBX 7 5 2 1
BITMAP
10
00
FE
00
10
ENDCHAR

STARTCHAR rcaron
ENCODING 248
SWIDTH 389 0
DWIDTH 6 0
BBX 6 10 0 0
BITMAP
24
18
00
D8
68
40
40
80
80
80
ENDCHAR

STARTCHAR uring
ENCODING 249
SWIDTH 500 0
DWIDTH 7 0
BBX 6 10 0 0
BITMAP
10
28
10
C4
44
44
88
98
A8
CC
ENDCHAR

STARTCHAR uacute
ENCODING 250
SWIDTH 500 0
DWIDTH 7 0
BBX 6 10 0 0
BITMAP
08
10
00
C4
44
44
88
98
A8
CC
ENDCHAR

STARTCHAR uhungarumlaut
ENCODING 251
SWIDTH 500 0
DWIDTH 7 0
BBX 7 10 0 0
BITMAP
12
24
00
C4
44
44
88
98
A8
CC
ENDCHAR

STARTCHAR udieresis
ENCODING 252
SWIDTH 500 0
DWIDTH 7 0
BBX 6 9 0 0
BITMAP
24
00
C4
44
44
88
98
A8
CC
ENDCHAR

STARTCHAR yacute
ENCODING 253
SWIDTH 444 0
DWIDTH 7 0
BBX 8 13 -2 -3
BITMAP
02
04
00
33
11
11
12
14
18
10
10
20
C0
ENDCHAR

STARTCHAR tcommaaccent
ENCODING 254
SWIDTH 278 0
DWIDTH 4 0
BBX 4 13 -1 -4
BITMAP
10
20
70
20
20
20
40
50
60
00
40
40
80
ENDCHAR

STARTCHAR dotaccent
ENCODING 255
SWIDTH 333 0
DWIDTH 5 0
BBX 1 1 2 8
BITMAP
80
ENDCHAR
ENDFONT
